Coordinates
version=1
nRows=4
nColumns=107
inDegrees=yes

Units are S.I. units (second, meters, Newtons, ...)
If the header above contains a line with 'inDegrees', this indicates whether rotational values are in degrees (yes) or radians (no).

endheader
time	sternoclavicular_r2	sternoclavicular_r3	unrotscap_r3	unrotscap_r2	acromioclavicular_r2	acromioclavicular_r3	acromioclavicular_r1	unrothum_r1	unrothum_r3	unrothum_r2	elv_angle	shoulder_elv	shoulder1_r2	shoulder_rot	elbow_flexion	pro_sup	deviation	flexion	proximal_distal_r1	proximal_distal_r3	cmc_flexion	cmc_abduction	mp_flexion	ip_flexion	mcp2_flexion	mcp2_abduction	pm2_flexion	md2_flexion	mcp3_flexion	mcp3_abduction	pm3_flexion	md3_flexion	mcp4_flexion	mcp4_abduction	pm4_flexion	md4_flexion	mcp5_flexion	mcp5_abduction	pm5_flexion	md5_flexion	bicpt_tx	bicpt_ty	bicpt_tz	bicpt2_tx	bicpt2_ty	bicpt2_tz	ptpt_tx	ptpt_ty	ptpt_tz	FCUpt_tx	FCUpt_ty	FCUpt_tz	EDCpt_tx	EDCpt_ty	EDCpt_tz	APLpt_tx	APLpt_ty	APLpt_tz	FPLpt_tx	FPLpt_ty	FPLpt_tz	FPLpt2_tx	FPLpt2_ty	FPLpt2_tz	PEC1pt2_tx	PEC1pt2_ty	PEC1pt2_tz	PEC1pt3_tx	PEC1pt3_ty	PEC1pt3_tz	PEC2pt2_tx	PEC2pt2_ty	PEC2pt2_tz	PEC2pt3_tx	PEC2pt3_ty	PEC2pt3_tz	PEC3pt2_tx	PEC3pt2_ty	PEC3pt2_tz	PEC3pt3_tx	PEC3pt3_ty	PEC3pt3_tz	DELT2pt2a_tx	DELT2pt2a_ty	DELT2pt2a_tz	DELT2pt2_tx	DELT2pt2_ty	DELT2pt2_tz	LAT1pt2_tx	LAT1pt2_ty	LAT1pt2_tz	LAT1pt3_tx	LAT1pt3_ty	LAT1pt3_tz	LAT2pt2_tx	LAT2pt2_ty	LAT2pt2_tz	LAT2pt3_tx	LAT2pt3_ty	LAT2pt3_tz	LAT3pt2_tx	LAT3pt2_ty	LAT3pt2_tz	LAT3pt3_tx	LAT3pt3_ty	LAT3pt3_tz
      0.00000000	     -0.31393698	      0.13296889	     -0.13296889	      0.31393698	     -0.06356585	      0.51371686	      0.23091219	     -0.23091219	     -0.51371686	      0.06356585	    102.60976889	     74.32737051	     -1.79087831	    -35.43064190	     26.65633963	     15.66080361	     -0.03426346	     -1.05736973	     -0.04746117	     -0.52868487	    -12.55756170	      2.88018398	    -31.06308871	    -13.31487178	     51.14025396	     12.87088429	     11.63047642	    -32.14190110	     88.65579078	      3.44897820	     86.14233097	     65.15744342	     77.04373085	     -4.08169402	     88.79122057	     41.13819555	     32.44230448	     -3.81374848	     -6.02077902	      4.97925170	      0.00078171	     -0.03065522	     -0.00479212	      0.01585134	     -0.01744133	     -0.00965299	      0.00639284	     -0.06564824	     -0.00131156	      0.00542121	     -0.18391728	      0.00000941	     -0.00187929	      0.00048157	      0.00016063	      0.00014554	      0.00005822	      0.00029108	      0.00018629	      0.00055888	      0.00031437	     -0.00216257	      0.00040155	      0.00048186	      0.00243629	      0.00854765	      0.00594619	     -0.00796955	      0.01924255	     -0.01825151	      0.00243629	      0.00854765	      0.00594619	      0.00053681	      0.01783858	     -0.00937352	      0.00387768	      0.00475324	      0.01579333	      0.00000000	      0.00738591	      0.00000000	     -0.00697852	     -0.03224985	     -0.00608772	      0.02108834	     -0.00094637	     -0.01031256	     -0.00086715	      0.01453514	     -0.00594619	      0.00239500	      0.02097685	     -0.01734307	     -0.00582232	      0.01259437	     -0.00532680	     -0.01214015	      0.02659270	     -0.02977227	     -0.02279375	      0.01408092	     -0.00714369	     -0.01511324	      0.03072201	     -0.03720501
      0.03333333	     -0.31404783	      0.13301584	     -0.13301584	      0.31404783	     -0.06358830	      0.51389825	      0.23099373	     -0.23099373	     -0.51389825	      0.06358830	    102.35005399	     74.35361569	     -1.78634543	    -34.82070573	     26.78935083	     16.45057459	     -0.04082707	     -1.05860291	     -0.05677221	     -0.52930146	    -12.14827470	      2.23990500	    -30.75675555	    -13.26696675	     49.65641575	     13.00089802	     11.21698321	    -32.26167338	     87.81794066	      3.98197947	     86.09216443	     64.92638803	     76.23864423	     -8.12627575	     86.76950305	     40.13316978	     32.19938274	     -3.47791598	     -6.10042256	      4.96222799	      0.00078611	     -0.03067047	     -0.00479457	      0.01589605	     -0.01747746	     -0.00959518	      0.00633449	     -0.06568597	     -0.00137518	      0.00549489	     -0.18390621	     -0.00001043	     -0.00197406	      0.00050786	      0.00016520	      0.00014462	      0.00005785	      0.00028923	      0.00018511	      0.00055533	      0.00031237	     -0.00201356	      0.00038570	      0.00046284	      0.00243715	      0.00855067	      0.00594829	     -0.00797237	      0.01924934	     -0.01825796	      0.00243715	      0.00855067	      0.00594829	      0.00053700	      0.01784488	     -0.00937683	      0.00387869	      0.00475492	      0.01579588	      0.00000000	      0.00739116	      0.00000000	     -0.00698098	     -0.03226123	     -0.00609208	      0.02085961	     -0.00092475	     -0.00998060	     -0.00086746	      0.01454027	     -0.00594829	      0.00239584	      0.02098426	     -0.01734919	     -0.00582437	      0.01259882	     -0.00532868	     -0.01214443	      0.02660209	     -0.02978278	     -0.02280179	      0.01408589	     -0.00714621	     -0.01511858	      0.03073285	     -0.03721815
      0.06666667	     -0.31521871	      0.13351177	     -0.13351177	      0.31521871	     -0.06382538	      0.51581425	      0.23185495	     -0.23185495	     -0.51581425	      0.06382538	    101.84225799	     74.63083213	     -1.77748272	    -33.04109878	     26.79745400	     15.49757570	     -0.05306417	     -1.06911423	     -0.07431977	     -0.53455711	    -12.07299471	      1.86189677	    -30.51016618	    -13.30377901	     47.84146290	     12.97238576	     12.71248591	    -31.04797221	     86.52764567	      4.14925658	     86.30725655	     61.17450673	     76.34539560	    -10.03967547	     84.18596166	     34.98486940	     31.79672237	     -3.83020245	     -6.57817870	      4.94625420	      0.00078638	     -0.03067140	     -0.00479472	      0.01584189	     -0.01747966	     -0.00966482	      0.00640490	     -0.06564044	     -0.00129841	      0.00540601	     -0.18391954	      0.00001358	     -0.00185970	      0.00047616	      0.00015963	      0.00013664	      0.00005466	      0.00027329	      0.00017490	      0.00052471	      0.00029515	     -0.00198691	      0.00038280	      0.00045936	      0.00244623	      0.00858255	      0.00597047	     -0.00800209	      0.01932111	     -0.01832603	      0.00244623	      0.00858255	      0.00597047	      0.00053900	      0.01791141	     -0.00941179	      0.00388936	      0.00477265	      0.01582265	      0.00000000	      0.00744674	      0.00000000	     -0.00700701	     -0.03238152	     -0.00613825	      0.02016429	     -0.00086216	     -0.00903410	     -0.00087069	      0.01459449	     -0.00597047	      0.00240477	      0.02106250	     -0.01741388	     -0.00584609	      0.01264579	     -0.00534855	     -0.01218971	      0.02670128	     -0.02989382	     -0.02288681	      0.01413841	     -0.00717286	     -0.01517495	      0.03084744	     -0.03735691
      0.10000000	     -0.31515399	      0.13348436	     -0.13348436	      0.31515399	     -0.06381227	      0.51570834	      0.23180735	     -0.23180735	     -0.51570834	      0.06381227	    101.84825245	     74.61550819	     -1.77758734	    -33.03333389	     26.79352200	     15.50222434	     -0.05307532	     -1.06911534	     -0.07433640	     -0.53455767	    -12.07212199	      1.86212267	    -30.50969506	    -13.30377588	     47.84196439	     12.97319294	     12.71243924	    -31.04802376	     86.52530477	      4.14900589	     86.30664023	     61.17409745	     76.34106370	    -10.04183697	     84.18430780	     34.98449942	     31.79518607	     -3.82954431	     -6.57882538	      4.94617996	      0.00078625	     -0.03067095	     -0.00479465	      0.01584215	     -0.01747859	     -0.00966448	      0.00640456	     -0.06564066	     -0.00129879	      0.00540645	     -0.18391947	      0.00001346	     -0.00186026	      0.00047631	      0.00015966	      0.00013664	      0.00005466	      0.00027328	      0.00017490	      0.00052470	      0.00029514	     -0.00198660	      0.00038277	      0.00045932	      0.00244573	      0.00858079	      0.00596925	     -0.00800045	      0.01931714	     -0.01832227	      0.00244573	      0.00858079	      0.00596925	      0.00053889	      0.01790774	     -0.00940985	      0.00388877	      0.00477167	      0.01582117	      0.00000000	      0.00744366	      0.00000000	     -0.00700557	     -0.03237487	     -0.00613569	      0.02016115	     -0.00086189	     -0.00903006	     -0.00087051	      0.01459149	     -0.00596925	      0.00240428	      0.02105817	     -0.01741030	     -0.00584489	      0.01264319	     -0.00534745	     -0.01218721	      0.02669579	     -0.02988768	     -0.02288211	      0.01413551	     -0.00717139	     -0.01517183	      0.03084110	     -0.03734924
